<?xml version="1.0" standalone="no"?>
<!DOCTYPE svg PUBLIC "-//W3C//DTD SVG 20010904//EN"
 "http://www.w3.org/TR/2001/REC-SVG-20010904/DTD/svg10.dtd">
<svg version="1.0" xmlns="http://www.w3.org/2000/svg"
 width="600.000000pt" height="600.000000pt" viewBox="0 0 600.000000 600.000000"
 preserveAspectRatio="xMidYMid meet">
<metadata>
Created by potrace 1.14, written by Peter Selinger 2001-2017
</metadata>
<g transform="translate(0.000000,600.000000) scale(0.100000,-0.100000)"
fill="#000000" stroke="none">
<path d="M2790 5062 c0 -4 -17 -7 -38 -8 -71 -2 -112 -8 -112 -16 0 -5 -10 -4
-21 3 -12 6 -19 7 -15 1 6 -9 -75 -28 -101 -23 -7 1 -13 -3 -13 -9 0 -5 -5
-10 -11 -10 -5 0 -8 4 -5 9 4 5 -5 4 -18 -2 -13 -7 -22 -16 -19 -21 4 -5 1 -6
-5 -2 -7 4 -18 4 -24 -1 -7 -4 -17 -8 -23 -8 -29 -2 -74 -18 -70 -25 3 -4 -4
-6 -15 -3 -11 3 -20 0 -20 -6 0 -5 -7 -8 -15 -5 -8 4 -15 1 -15 -6 0 -6 -4 -9
-9 -5 -5 3 -12 1 -16 -5 -4 -6 -11 -8 -16 -5 -5 4 -9 1 -9 -5 0 -6 -4 -9 -8
-6 -5 3 -23 -4 -41 -15 -18 -11 -36 -17 -40 -14 -5 2 -14 -2 -21 -11 -7 -8
-19 -13 -27 -10 -7 3 -13 2 -13 -3 0 -4 -20 -18 -45 -30 -25 -12 -45 -27 -45
-32 0 -6 -5 -7 -12 -3 -6 4 -17 -1 -25 -11 -7 -11 -13 -15 -13 -11 0 5 -7 3
-15 -4 -8 -7 -15 -9 -15 -6 0 4 -6 1 -14 -6 -8 -7 -12 -16 -10 -19 2 -4 -3
-10 -12 -13 -10 -4 -13 -2 -9 7 4 6 -3 1 -14 -12 -12 -13 -21 -20 -21 -16 0 4
-15 -6 -34 -21 -18 -16 -48 -40 -66 -54 -18 -14 -53 -44 -77 -67 -25 -24 -49
-43 -55 -43 -6 0 -8 -7 -5 -14 4 -11 1 -13 -10 -9 -12 5 -15 2 -11 -9 4 -10 1
-15 -10 -14 -9 0 -16 -5 -15 -11 2 -7 -2 -13 -8 -13 -5 0 -7 -5 -3 -12 4 -6 3
-8 -3 -5 -9 6 -41 -23 -53 -48 -3 -5 -14 -19 -25 -31 -32 -35 -84 -98 -102
-125 -9 -13 -20 -26 -24 -29 -3 -3 -9 -15 -13 -28 -4 -12 -12 -20 -17 -16 -5
3 -9 2 -8 -3 3 -19 -2 -46 -8 -40 -7 8 -32 -23 -33 -40 0 -7 -11 -29 -25 -49
-14 -20 -22 -40 -19 -45 3 -5 1 -9 -4 -9 -5 0 -17 -17 -26 -37 -9 -21 -21 -46
-26 -55 -6 -10 -10 -25 -10 -33 0 -8 -4 -15 -10 -15 -5 0 -10 -8 -10 -17 0 -9
-12 -46 -26 -82 -15 -36 -27 -76 -28 -88 0 -13 -4 -23 -8 -23 -5 0 -8 -11 -8
-25 0 -14 -4 -25 -9 -25 -4 0 -6 -11 -3 -25 2 -14 0 -25 -5 -25 -5 0 -9 -10
-10 -22 -1 -13 -4 -36 -8 -53 -7 -32 -13 -72 -14 -93 -1 -7 -5 -10 -11 -7 -6
3 -7 -1 -4 -9 3 -9 11 -13 18 -9 6 4 5 -1 -3 -10 -7 -9 -10 -17 -6 -17 4 0 2
-7 -5 -15 -10 -12 -10 -15 0 -15 9 0 9 -4 2 -12 -13 -17 -13 -318 1 -318 5 0
4 -7 -3 -15 -7 -8 -8 -15 -3 -15 7 0 11 -23 16 -107 0 -13 4 -23 8 -23 4 0 7
-10 7 -22 0 -35 10 -107 17 -118 3 -5 8 -19 11 -30 2 -11 7 -30 10 -42 3 -13
7 -30 9 -38 2 -8 4 -16 5 -17 2 -2 3 -6 4 -10 1 -5 4 -12 7 -18 4 -5 5 -18 4
-27 -2 -10 1 -18 6 -18 6 0 7 -4 4 -10 -3 -5 -1 -10 5 -10 7 0 9 -7 6 -17 -4
-9 -2 -19 3 -22 5 -3 11 -17 12 -31 2 -14 6 -27 9 -30 3 -3 15 -32 27 -65 12
-33 31 -85 43 -115 12 -30 22 -61 23 -67 0 -7 4 -13 8 -13 7 0 40 -72 45 -99
1 -8 7 -17 12 -20 5 -3 15 -21 23 -38 8 -18 17 -33 21 -33 5 0 7 -3 7 -8 -3
-19 2 -33 11 -27 6 3 10 1 10 -6 0 -7 11 -27 25 -44 13 -18 21 -35 18 -39 -4
-3 1 -6 11 -6 9 0 15 -4 12 -9 -3 -5 1 -14 9 -21 8 -7 12 -17 8 -23 -3 -5 -2
-7 4 -4 5 3 18 -6 29 -20 10 -15 31 -40 47 -55 15 -16 27 -33 27 -38 0 -6 6
-10 13 -10 6 0 21 -14 32 -30 11 -16 23 -30 27 -30 4 0 30 -23 58 -50 27 -28
50 -47 50 -43 0 4 5 0 11 -10 5 -9 17 -17 25 -17 8 0 12 -5 9 -10 -3 -6 1 -10
9 -10 9 0 16 -4 16 -8 0 -4 13 -16 30 -25 16 -10 37 -25 46 -35 10 -9 21 -17
26 -17 5 0 13 -7 18 -15 5 -8 10 -10 10 -5 0 6 3 6 8 0 6 -10 39 -30 135 -84
20 -11 37 -17 37 -13 0 4 4 3 8 -3 10 -15 49 -35 67 -35 8 0 15 -5 15 -11 0
-5 4 -7 10 -4 6 3 10 2 10 -4 0 -5 9 -8 20 -6 11 2 18 0 15 -5 -3 -4 9 -12 27
-15 18 -4 39 -12 46 -17 6 -6 12 -8 12 -5 0 3 16 -1 35 -9 20 -8 40 -12 46 -9
5 4 16 -1 24 -9 9 -8 22 -13 30 -10 8 4 15 2 15 -2 0 -5 12 -10 28 -11 15 0
41 -4 57 -9 17 -4 49 -8 72 -8 22 -1 39 -4 37 -7 -2 -4 3 -9 11 -13 8 -3 15 0
15 7 0 8 3 8 8 2 8 -13 29 -15 244 -19 92 -2 171 -7 177 -10 5 -4 12 -2 16 4
3 6 17 8 31 6 13 -3 24 -2 24 2 0 4 27 7 59 7 33 0 57 3 55 6 -2 3 9 7 24 7
38 2 60 7 68 15 4 3 15 2 25 -4 14 -7 21 -6 25 4 2 7 10 14 17 15 26 2 63 10
79 16 9 4 22 9 30 10 40 8 75 20 87 30 8 6 16 10 18 8 8 -6 53 11 53 22 0 6 4
4 10 -4 8 -12 10 -12 15 2 4 9 13 14 21 11 8 -3 14 0 14 7 0 6 5 8 10 5 6 -3
10 -2 10 4 0 6 6 8 14 5 7 -3 20 1 27 9 8 7 16 14 19 15 31 8 110 47 110 54 0
5 4 7 9 3 5 -3 12 -1 16 5 4 6 11 8 16 5 5 -4 9 -1 9 5 0 6 4 9 8 6 5 -3 14 3
22 14 7 10 20 16 28 12 10 -3 13 -1 8 6 -4 7 -1 12 7 12 8 0 24 9 37 20 13 11
27 20 32 20 5 0 6 5 2 12 -4 6 -3 8 4 4 11 -7 102 52 102 66 0 4 4 8 10 8 11
0 33 17 88 68 19 17 50 44 68 59 19 14 36 35 39 44 4 10 9 18 13 18 20 -3 32
2 27 11 -3 6 -1 10 5 10 6 0 8 5 5 10 -3 6 1 10 9 10 9 0 16 4 16 8 0 5 16 25
35 45 19 19 36 41 37 49 2 7 13 21 26 31 12 10 22 23 22 28 0 5 8 19 19 30 10
11 29 40 41 64 13 25 27 45 32 45 5 0 6 5 3 10 -3 6 -1 10 4 10 6 0 11 8 11
19 0 10 7 24 15 31 8 7 15 19 15 26 0 8 5 14 10 14 6 0 10 6 10 14 0 7 7 19
15 26 8 7 13 16 10 20 -2 4 9 33 25 66 15 32 26 62 24 66 -3 5 0 8 6 8 7 0 10
7 6 15 -3 8 -1 15 3 15 5 0 12 18 16 40 4 22 11 40 16 40 6 0 8 4 5 9 -3 5 1
30 9 57 8 26 12 50 10 53 -3 2 0 10 5 16 6 7 11 24 12 39 1 14 5 26 8 26 5 0
8 26 11 82 1 15 5 25 10 22 13 -7 7 19 -6 29 -6 4 -5 10 4 16 8 5 11 16 8 25
-4 9 -2 16 2 16 5 0 7 10 3 22 -4 16 -2 19 9 13 12 -7 12 -6 0 9 -13 15 -13
19 0 27 8 5 9 9 3 9 -6 0 -11 7 -11 15 0 8 5 15 10 15 5 0 4 7 -3 15 -10 12
-10 15 0 15 9 0 10 3 1 13 -7 10 -7 17 0 24 8 8 8 13 0 17 -8 5 -8 13 -1 26 6
10 6 21 2 24 -10 6 -9 36 1 53 4 6 3 14 -3 18 -7 4 -7 12 0 25 7 13 7 21 -1
25 -6 4 -8 13 -5 20 2 7 -1 18 -7 24 -8 8 -8 11 2 11 10 0 11 3 2 13 -6 8 -8
16 -6 19 3 3 1 17 -4 30 -7 18 -6 29 2 38 9 10 9 11 0 6 -12 -7 -19 24 -14 62
1 6 -4 12 -10 12 -7 0 -9 3 -6 6 3 4 2 15 -4 25 -7 14 -6 19 3 19 9 0 10 3 2
8 -6 4 -10 15 -8 25 1 9 -1 17 -5 17 -4 0 -8 8 -9 18 -2 21 -10 57 -12 57 -2
0 -6 16 -21 78 -6 26 -15 47 -21 47 -6 0 -8 7 -5 15 4 8 2 17 -4 20 -5 4 -7
11 -3 16 3 5 0 16 -6 24 -7 8 -10 15 -6 15 4 0 0 13 -8 29 -9 16 -12 31 -9 35
4 3 0 6 -7 6 -7 0 -10 3 -7 7 4 3 2 12 -4 20 -6 7 -8 13 -5 13 4 0 1 10 -6 23
-6 12 -13 27 -14 33 -1 6 -16 40 -33 75 -17 35 -31 69 -31 76 0 7 -5 13 -11
13 -5 0 -7 5 -4 10 3 6 1 10 -6 10 -7 0 -9 3 -6 6 4 4 -1 14 -11 23 -19 16
-36 50 -34 64 1 4 -3 7 -9 7 -5 0 -7 5 -4 10 3 6 -1 10 -10 10 -9 0 -13 5 -10
10 3 6 1 10 -4 10 -6 0 -11 6 -11 13 0 6 -15 30 -34 52 -19 22 -45 53 -58 68
-52 64 -96 106 -102 99 -4 -3 -4 1 0 11 3 10 1 17 -6 17 -6 0 -31 19 -55 43
-88 86 -116 108 -128 101 -6 -4 -9 -4 -5 1 8 9 -15 35 -31 35 -6 0 -11 5 -11
10 0 6 -4 10 -10 10 -9 0 -35 19 -65 48 -8 6 -21 12 -30 12 -9 0 -13 5 -10 10
3 6 -1 10 -9 10 -9 0 -25 9 -36 20 -11 11 -23 21 -27 22 -32 6 -43 12 -43 21
0 6 -3 8 -6 4 -3 -3 -15 3 -27 14 -11 10 -29 19 -39 19 -10 0 -18 5 -18 10 0
6 -6 10 -13 10 -7 0 -32 9 -55 20 -22 11 -46 20 -52 20 -5 0 -10 5 -10 12 0 6
-3 9 -6 5 -4 -3 -19 0 -35 9 -16 8 -29 12 -29 8 0 -4 -6 -2 -12 4 -7 6 -17 11
-23 12 -5 1 -21 6 -33 11 -13 5 -28 7 -33 3 -5 -3 -9 -1 -9 4 0 10 -28 21 -65
27 -73 11 -88 15 -101 26 -10 8 -14 9 -14 0 0 -8 -5 -9 -19 -2 -10 6 -21 7
-25 4 -3 -3 -6 0 -6 8 0 11 -2 11 -10 -1 -5 -8 -10 -10 -10 -4 0 6 -6 11 -12
11 -7 1 -38 4 -68 8 -78 10 -470 16 -470 7z"/>
</g>
</svg>
